<svg width="20" height="20" viewBox="0 0 20 20" fill="none" xmlns="http://www.w3.org/2000/svg">
<path fill-rule="evenodd" clip-rule="evenodd" d="M1.91614 9.41205C2.24249 9.08661 2.77159 9.08661 3.09794 9.41205L6.44055 12.7454C6.7669 13.0708 6.7669 13.5985 6.44055 13.9239C6.11421 14.2493 5.5851 14.2493 5.25876 13.9239L1.91614 10.5906C1.5898 10.2651 1.5898 9.73748 1.91614 9.41205Z" fill="#229C90"/>
<path fill-rule="evenodd" clip-rule="evenodd" d="M7.76575 10.2441C8.0921 9.91864 8.6212 9.91864 8.94755 10.2441L11.4545 12.7441C11.7808 13.0695 11.7808 13.5972 11.4545 13.9226C11.1282 14.248 10.5991 14.248 10.2727 13.9226L7.76575 11.4226C7.43941 11.0972 7.43941 10.5695 7.76575 10.2441Z" fill="#229C90"/>
<path fill-rule="evenodd" clip-rule="evenodd" d="M13.1259 6.07611C13.4523 6.40155 13.4523 6.92918 13.1259 7.25462L6.44071 13.9213C6.11437 14.2467 5.58526 14.2467 5.25892 13.9213C4.93257 13.5958 4.93257 13.0682 5.25892 12.7428L11.9442 6.07611C12.2705 5.75067 12.7996 5.75067 13.1259 6.07611Z" fill="#229C90"/>
<path fill-rule="evenodd" clip-rule="evenodd" d="M18.1396 6.07611C18.466 6.40155 18.466 6.92918 18.1396 7.25462L11.4544 13.9213C11.128 14.2467 10.5989 14.2467 10.2726 13.9213C9.94625 13.5959 9.94625 13.0682 10.2726 12.7428L16.9578 6.07611C17.2842 5.75067 17.8133 5.75067 18.1396 6.07611Z" fill="#229C90"/>
</svg>
