<svg width="17" height="16" viewBox="0 0 17 16" fill="none" xmlns="http://www.w3.org/2000/svg">
<path fill-rule="evenodd" clip-rule="evenodd" d="M1.53717 7.52729C1.79897 7.26694 2.22344 7.26694 2.48524 7.52729L5.16678 10.194C5.42858 10.4543 5.42858 10.8764 5.16678 11.1368C4.90498 11.3971 4.48051 11.3971 4.21871 11.1368L1.53717 8.4701C1.27537 8.20975 1.27537 7.78764 1.53717 7.52729Z" fill="#229C90"/>
<path fill-rule="evenodd" clip-rule="evenodd" d="M6.23004 8.19526C6.49184 7.93491 6.91631 7.93491 7.17811 8.19526L9.18926 10.1953C9.45106 10.4556 9.45106 10.8777 9.18926 11.1381C8.92746 11.3984 8.503 11.3984 8.2412 11.1381L6.23004 9.13807C5.96824 8.87772 5.96824 8.45561 6.23004 8.19526Z" fill="#229C90"/>
<path fill-rule="evenodd" clip-rule="evenodd" d="M10.53 4.86323C10.7918 5.12358 10.7918 5.54569 10.53 5.80604L5.16688 11.1394C4.90508 11.3997 4.48061 11.3997 4.21881 11.1394C3.95701 10.879 3.95701 10.4569 4.21881 10.1966L9.58189 4.86323C9.84369 4.60288 10.2682 4.60288 10.53 4.86323Z" fill="#229C90"/>
<path fill-rule="evenodd" clip-rule="evenodd" d="M14.5519 4.86323C14.8137 5.12358 14.8137 5.54569 14.5519 5.80604L9.18885 11.1394C8.92705 11.3997 8.50259 11.3997 8.24078 11.1394C7.97898 10.879 7.97898 10.4569 8.24078 10.1966L13.6039 4.86323C13.8657 4.60288 14.2901 4.60288 14.5519 4.86323Z" fill="#229C90"/>
</svg>
