<svg width="20" height="20" viewBox="0 0 20 20" fill="none" xmlns="http://www.w3.org/2000/svg">
<path fill-rule="evenodd" clip-rule="evenodd" d="M4.41058 9.41107C4.73602 9.08563 5.26366 9.08563 5.58909 9.41107L8.92243 12.7444C9.24786 13.0698 9.24786 13.5975 8.92243 13.9229C8.59699 14.2483 8.06935 14.2483 7.74392 13.9229L4.41058 10.5896C4.08514 10.2641 4.08514 9.73651 4.41058 9.41107Z" fill="#229C90"/>
<path fill-rule="evenodd" clip-rule="evenodd" d="M15.5893 6.07709C15.9147 6.40252 15.9147 6.93016 15.5893 7.2556L8.92259 13.9223C8.59715 14.2477 8.06952 14.2477 7.74408 13.9223C7.41864 13.5968 7.41864 13.0692 7.74408 12.7438L14.4107 6.07709C14.7362 5.75165 15.2638 5.75165 15.5893 6.07709Z" fill="#229C90"/>
</svg>
