<svg width="17" height="16" viewBox="0 0 17 16" fill="none" xmlns="http://www.w3.org/2000/svg">
<path fill-rule="evenodd" clip-rule="evenodd" d="M3.53858 7.52729C3.79965 7.26694 4.22294 7.26694 4.48401 7.52729L7.15811 10.194C7.41918 10.4543 7.41918 10.8764 7.15811 11.1368C6.89703 11.3971 6.47375 11.3971 6.21267 11.1368L3.53858 8.4701C3.2775 8.20975 3.2775 7.78764 3.53858 7.52729Z" fill="#98A2B3"/>
<path fill-rule="evenodd" clip-rule="evenodd" d="M12.506 4.86323C12.7671 5.12358 12.7671 5.54569 12.506 5.80604L7.15784 11.1394C6.89677 11.3997 6.47348 11.3997 6.21241 11.1394C5.95133 10.879 5.95133 10.4569 6.21241 10.1966L11.5606 4.86323C11.8217 4.60288 12.245 4.60288 12.506 4.86323Z" fill="#98A2B3"/>
</svg>
