<svg width="66" height="66" viewBox="0 0 66 66" fill="none" xmlns="http://www.w3.org/2000/svg">
<rect x="1" y="1" width="62" height="62" rx="31" fill="#DCEAEE"/>
<rect x="1" y="1" width="62" height="62" rx="31" stroke="url(#paint0_linear_753_28116)" stroke-width="2"/>
<path d="M42.6663 44V41.3333C42.6663 39.9188 42.1044 38.5623 41.1042 37.5621C40.1041 36.5619 38.7475 36 37.333 36H26.6663C25.2519 36 23.8953 36.5619 22.8951 37.5621C21.8949 38.5623 21.333 39.9188 21.333 41.3333V44M37.333 25.3333C37.333 28.2789 34.9452 30.6667 31.9997 30.6667C29.0542 30.6667 26.6663 28.2789 26.6663 25.3333C26.6663 22.3878 29.0542 20 31.9997 20C34.9452 20 37.333 22.3878 37.333 25.3333Z" stroke="#229C90" stroke-width="2.66667" stroke-linecap="round" stroke-linejoin="round"/>
<rect x="47.25" y="47.25" width="17.5" height="17.5" rx="8.75" fill="#12B76A"/>
<rect x="47.25" y="47.25" width="17.5" height="17.5" rx="8.75" stroke="white" stroke-width="1.5"/>
<defs>
<linearGradient id="paint0_linear_753_28116" x1="-1.28" y1="11.7333" x2="79.771" y2="19.4891" gradientUnits="userSpaceOnUse">
<stop stop-color="#DA8207"/>
<stop offset="0.0932979" stop-color="#DD9318"/>
<stop offset="0.230387" stop-color="#FFCB3C"/>
<stop offset="0.678823" stop-color="#FFCB3C"/>
<stop offset="0.799224" stop-color="#E39C1E"/>
<stop offset="0.835628" stop-color="#FBC63A"/>
</linearGradient>
</defs>
</svg>
