<svg width="84" height="84" viewBox="0 0 84 84" fill="none" xmlns="http://www.w3.org/2000/svg">
<rect x="2" y="2" width="80" height="80" rx="40" fill="#DCEAEE"/>
<rect x="2" y="2" width="80" height="80" rx="40" stroke="url(#paint0_linear_765_28603)" stroke-width="4"/>
<path d="M54.6663 56.25V53.0833C54.6663 51.4036 53.9991 49.7927 52.8114 48.605C51.6236 47.4173 50.0127 46.75 48.333 46.75H35.6663C33.9866 46.75 32.3757 47.4173 31.188 48.605C30.0003 49.7927 29.333 51.4036 29.333 53.0833V56.25M48.333 34.0833C48.333 37.5811 45.4975 40.4167 41.9997 40.4167C38.5019 40.4167 35.6663 37.5811 35.6663 34.0833C35.6663 30.5855 38.5019 27.75 41.9997 27.75C45.4975 27.75 48.333 30.5855 48.333 34.0833Z" stroke="#EE9321" stroke-width="2.66667" stroke-linecap="round" stroke-linejoin="round"/>
<defs>
<linearGradient id="paint0_linear_765_28603" x1="2.48" y1="17.9333" x2="98.728" y2="27.1433" gradientUnits="userSpaceOnUse">
<stop stop-color="#DA8207"/>
<stop offset="0.0932979" stop-color="#DD9318"/>
<stop offset="0.230387" stop-color="#FFCB3C"/>
<stop offset="0.678823" stop-color="#FFCB3C"/>
<stop offset="0.799224" stop-color="#E39C1E"/>
<stop offset="0.835628" stop-color="#FBC63A"/>
</linearGradient>
</defs>
</svg>
