<svg width="20" height="20" viewBox="0 0 20 20" fill="none" xmlns="http://www.w3.org/2000/svg">
<g clip-path="url(#clip0_3423_4066)">
<path d="M11.4418 17.4987C11.2953 17.7513 11.085 17.9609 10.832 18.1066C10.579 18.2524 10.2921 18.3291 10.0002 18.3291C9.70818 18.3291 9.42132 18.2524 9.16831 18.1066C8.91529 17.9609 8.705 17.7513 8.5585 17.4987M15.5252 10.832C15.1544 9.47487 14.9777 8.07207 15.0002 6.66536C15.0015 5.75958 14.7568 4.87045 14.2921 4.09294C13.8274 3.31543 13.1603 2.67875 12.3619 2.2509C11.5636 1.82305 10.664 1.62011 9.75924 1.66375C8.85452 1.7074 7.97864 1.99599 7.22516 2.4987M5.21683 5.21536C5.07205 5.68504 4.99901 6.17388 5.00016 6.66536C5.00016 12.4987 2.50016 14.1654 2.50016 14.1654H14.1668M0.833496 0.832031L19.1668 19.1654" stroke="#98A2B3" stroke-width="2" stroke-linecap="round" stroke-linejoin="round"/>
</g>
<defs>
<clipPath id="clip0_3423_4066">
<rect width="20" height="20" fill="white"/>
</clipPath>
</defs>
</svg>
