<svg width="65" height="58" viewBox="0 0 65 58" fill="none" xmlns="http://www.w3.org/2000/svg">
<path d="M35.6584 9.90098C23.5794 17.6818 16.8729 31.9119 12.8422 45.8289C12.635 46.5441 12.3817 47.2619 12.1502 47.9605C11.503 46.5676 7.0866 34.9998 5.30358 35.707C4.26153 36.1204 4.85761 37.6059 5.08693 38.2052C6.74683 42.5372 8.36843 46.4209 10.3518 50.6102C11.8445 53.7639 14.6223 52.9418 17.374 51.9819C21.5749 50.5165 21.9159 50.0963 26.2186 48.4097C26.9277 48.1315 27.6729 47.9067 28.3302 47.5593C29.103 47.1502 29.9316 46.2845 29.5213 45.341C29.0563 44.2716 28.0447 44.3471 27.1806 44.7397C27.0002 44.8222 26.817 44.8977 26.6321 44.9686C24.6013 45.7463 15.3838 49.8951 15.0768 49.1937C14.9731 48.9575 15.0082 48.6827 15.0473 48.4255C16.1757 41.0033 19.1637 33.9331 22.6936 27.4731C25.0686 23.126 28.1167 19.1994 31.6687 15.8874C34.523 13.2258 37.741 10.966 41.2464 9.40628C45.0052 7.73348 48.643 7.38881 52.6586 7.13439C54.9703 6.98817 53.1393 4.63891 51.8531 4.37429C50.4395 4.08303 48.9261 4.60609 47.5528 4.91103C43.2085 5.87811 39.2413 7.59325 35.6584 9.90098Z" fill="#F1A94D"/>
</svg>
