<svg width="24" height="24" viewBox="0 0 24 24" fill="none" xmlns="http://www.w3.org/2000/svg">
<path d="M12 21.9996C10.6167 21.9996 9.31667 21.7369 8.1 21.2116C6.88333 20.6863 5.825 19.9739 4.925 19.0746C4.025 18.1746 3.31267 17.1163 2.788 15.8996C2.26333 14.6829 2.00067 13.3829 2 11.9996C2 10.7496 2.24167 9.52461 2.725 8.32461C3.20833 7.12461 3.88333 6.05361 4.75 5.11161C5.61667 4.17028 6.65833 3.41194 7.875 2.83661C9.09167 2.26128 10.425 1.97394 11.875 1.97461C12.225 1.97461 12.5833 1.99128 12.95 2.02461C13.3167 2.05794 13.6917 2.11628 14.075 2.19961C13.925 2.94961 13.975 3.65794 14.225 4.32461C14.475 4.99128 14.85 5.54528 15.35 5.98661C15.85 6.42861 16.446 6.73294 17.138 6.89961C17.83 7.06628 18.5423 7.02461 19.275 6.77461C18.8417 7.75794 18.9043 8.69961 19.463 9.59961C20.0217 10.4996 20.8507 10.9663 21.95 10.9996C21.9667 11.1829 21.9793 11.3536 21.988 11.5116C21.9967 11.6696 22.0007 11.8406 22 12.0246C22 13.3913 21.7373 14.6786 21.212 15.8866C20.6867 17.0946 19.9743 18.1529 19.075 19.0616C18.175 19.9703 17.1167 20.6869 15.9 21.2116C14.6833 21.7363 13.3833 21.9989 12 21.9996ZM10.5 9.99961C10.9167 9.99961 11.271 9.85394 11.563 9.56261C11.855 9.27128 12.0007 8.91694 12 8.49961C12 8.08294 11.8543 7.72894 11.563 7.43761C11.2717 7.14628 10.9173 7.00028 10.5 6.99961C10.0833 6.99961 9.72933 7.14561 9.438 7.43761C9.14667 7.72961 9.00067 8.08361 9 8.49961C9 8.91628 9.146 9.27061 9.438 9.56261C9.73 9.85461 10.084 10.0003 10.5 9.99961ZM8.5 14.9996C8.91667 14.9996 9.271 14.8539 9.563 14.5626C9.855 14.2713 10.0007 13.9169 10 13.4996C10 13.0829 9.85433 12.7289 9.563 12.4376C9.27167 12.1463 8.91733 12.0003 8.5 11.9996C8.08333 11.9996 7.72933 12.1456 7.438 12.4376C7.14667 12.7296 7.00067 13.0836 7 13.4996C7 13.9163 7.146 14.2706 7.438 14.5626C7.73 14.8546 8.084 15.0003 8.5 14.9996ZM15 15.9996C15.2833 15.9996 15.521 15.9036 15.713 15.7116C15.905 15.5196 16.0007 15.2823 16 14.9996C16 14.7163 15.904 14.4789 15.712 14.2876C15.52 14.0963 15.2827 14.0003 15 13.9996C14.7167 13.9996 14.4793 14.0956 14.288 14.2876C14.0967 14.4796 14.0007 14.7169 14 14.9996C14 15.2829 14.096 15.5206 14.288 15.7126C14.48 15.9046 14.7173 16.0003 15 15.9996ZM12 19.9996C14.0333 19.9996 15.8377 19.2996 17.413 17.8996C18.9883 16.4996 19.8507 14.7163 20 12.5496C19.1667 12.1829 18.5123 11.6829 18.037 11.0496C17.5617 10.4163 17.241 9.70794 17.075 8.92461C15.7917 8.74128 14.6917 8.19128 13.775 7.27461C12.8583 6.35794 12.2917 5.25794 12.075 3.97461C10.7417 3.94128 9.571 4.18294 8.563 4.69961C7.555 5.21628 6.713 5.87894 6.037 6.68761C5.36233 7.49561 4.85467 8.37461 4.514 9.32461C4.17333 10.2746 4.002 11.1663 4 11.9996C4 14.2163 4.77933 16.1039 6.338 17.6626C7.89667 19.2213 9.784 20.0003 12 19.9996Z" fill="#EE9321"/>
</svg>
