<svg width="16" height="16" viewBox="0 0 16 16" fill="none" xmlns="http://www.w3.org/2000/svg">
<g clip-path="url(#clip0_593_14353)">
<path d="M8 16C12.4183 16 16 12.4183 16 8C16 3.58172 12.4183 0 8 0C3.58172 0 0 3.58172 0 8C0 12.4183 3.58172 16 8 16Z" fill="#D80027"/>
<path d="M7.67313 6.53711L8.32953 7.44164L9.39256 7.09695L8.73513 8.00071L9.39144 8.90521L8.32878 8.55921L7.67138 9.46296L7.67206 8.34543L6.60938 7.99942L7.67244 7.65474L7.67313 6.53711Z" fill="#F0F0F0"/>
<path d="M5.88165 10.2603C4.63302 10.2603 3.62077 9.24805 3.62077 7.99942C3.62077 6.7508 4.63302 5.73855 5.88165 5.73855C6.27096 5.73855 6.63727 5.83702 6.95709 6.0103C6.45537 5.51961 5.76921 5.2168 5.01209 5.2168C3.47527 5.2168 2.22949 6.46261 2.22949 7.99939C2.22949 9.53617 3.4753 10.782 5.01209 10.782C5.76927 10.782 6.4554 10.4791 6.95709 9.98848C6.63727 10.1618 6.27096 10.2603 5.88165 10.2603Z" fill="#F0F0F0"/>
</g>
<defs>
<clipPath id="clip0_593_14353">
<rect width="16" height="16" fill="white"/>
</clipPath>
</defs>
</svg>
