<svg width="77" height="62" viewBox="0 0 77 62" fill="none" xmlns="http://www.w3.org/2000/svg">
<path fill-rule="evenodd" clip-rule="evenodd" d="M59.8829 48.5516C71.9933 41.3307 78.9301 29.9836 76.4156 19.2915C72.9889 4.72121 53.3082 -3.11515 32.4575 1.78855C11.6069 6.69225 -2.51803 22.4791 0.908655 37.0494C4.33534 51.6197 24.016 59.4561 44.8667 54.5524C47.1872 54.0067 49.4243 53.3261 51.5633 52.5275C52.0271 55.0833 52.3537 59.406 50.8858 61.7767C54.8448 57.5423 59.0021 51.1303 59.8829 48.5516Z" fill="#EE9321"/>
<path fill-rule="evenodd" clip-rule="evenodd" d="M59.8829 48.5516C71.9933 41.3307 78.9301 29.9836 76.4156 19.2915C72.9889 4.72121 53.3082 -3.11515 32.4575 1.78855C11.6069 6.69225 -2.51803 22.4791 0.908655 37.0494C4.33534 51.6197 24.016 59.4561 44.8667 54.5524C47.1872 54.0067 49.4243 53.3261 51.5633 52.5275C52.0271 55.0833 52.3537 59.406 50.8858 61.7767C54.8448 57.5423 59.0021 51.1303 59.8829 48.5516Z" fill="white" fill-opacity="0.3"/>
</svg>
