<svg width="77" height="62" viewBox="0 0 77 62" fill="none" xmlns="http://www.w3.org/2000/svg">
<path fill-rule="evenodd" clip-rule="evenodd" d="M59.8821 48.5525C71.993 41.3316 78.9302 29.9843 76.4156 19.292C72.9889 4.7217 53.3082 -3.11466 32.4575 1.78904C11.6069 6.69274 -2.51803 22.4796 0.908655 37.0499C4.33534 51.6202 24.016 59.4566 44.8667 54.5529C47.187 54.0072 49.4241 53.3267 51.563 52.5281C52.0267 55.0839 52.3531 59.4062 50.8853 61.7768C54.8439 57.5429 59.0007 51.1318 59.8821 48.5525Z" fill="#EE9321"/>
<path fill-rule="evenodd" clip-rule="evenodd" d="M59.8821 48.5525C71.993 41.3316 78.9302 29.9843 76.4156 19.292C72.9889 4.7217 53.3082 -3.11466 32.4575 1.78904C11.6069 6.69274 -2.51803 22.4796 0.908655 37.0499C4.33534 51.6202 24.016 59.4566 44.8667 54.5529C47.187 54.0072 49.4241 53.3267 51.563 52.5281C52.0267 55.0839 52.3531 59.4062 50.8853 61.7768C54.8439 57.5429 59.0007 51.1318 59.8821 48.5525Z" fill="white" fill-opacity="0.3"/>
</svg>
